<?xml version="1.0" encoding="UTF-8"?>
<svg xmlns="http://www.w3.org/2000/svg" viewBox="0 0 64 64" role="img" aria-label="Quiz Quest">
  <defs>
    <linearGradient id="bg" x1="0" y1="0" x2="1" y2="1">
      <stop offset="0%" stop-color="#0b1220"/>
      <stop offset="100%" stop-color="#1e293b"/>
    </linearGradient>
    <linearGradient id="tileHi" x1="0" y1="0" x2="0" y2="1">
      <stop offset="0%" stop-color="#38bdf8"/>
      <stop offset="100%" stop-color="#22d3ee"/>
    </linearGradient>
    <linearGradient id="buzzer" x1="0" y1="0" x2="0" y2="1">
      <stop offset="0%" stop-color="#fde047"/>
      <stop offset="100%" stop-color="#facc15"/>
    </linearGradient>
  </defs>
  <rect width="64" height="64" rx="14" fill="url(#bg)"/>
  <rect x="8" y="8" width="48" height="48" rx="10" fill="#0f172a" stroke="#334155" stroke-width="1.5"/>
  <rect x="12" y="12" width="19" height="19" rx="4" fill="#243044"/>
  <rect x="33" y="12" width="19" height="19" rx="4" fill="url(#tileHi)"/>
  <rect x="12" y="33" width="19" height="19" rx="4" fill="#243044"/>
  <rect x="33" y="33" width="19" height="19" rx="4" fill="#243044"/>
  <path
    d="M42.5 18.5c0 2.2-1.4 3.4-3.1 4.2-.9.4-1.4 1-1.4 2v1.3"
    fill="none"
    stroke="#f8fafc"
    stroke-width="3"
    stroke-linecap="round"
  />
  <circle cx="38" cy="28.5" r="1.6" fill="#f8fafc"/>
  <circle cx="42.5" cy="42.5" r="7.5" fill="url(#buzzer)"/>
  <circle cx="40.5" cy="40.5" r="2.2" fill="#fff" opacity="0.4"/>
</svg>
